<?xml version="1.0" standalone="no"?>
<!DOCTYPE svg PUBLIC "-//W3C//DTD SVG 20010904//EN"
 "http://www.w3.org/TR/2001/REC-SVG-20010904/DTD/svg10.dtd">
<svg version="1.0" xmlns="http://www.w3.org/2000/svg"
 width="6000.000000pt" height="4000.000000pt" viewBox="0 0 6000.000000 4000.000000"
 preserveAspectRatio="xMidYMid meet">

<g transform="translate(0.000000,4000.000000) scale(0.100000,-0.100000)"
fill="#000000" stroke="none">
<path d="M0 20000 l0 -20000 30000 0 30000 0 0 19994 0 19993 -82 6 c-46 4
-13546 7 -30000 7 l-29918 0 0 -20000z m29597 -1476 c-3 -3 -12 -4 -19 -1 -8
3 -5 6 6 6 11 1 17 -2 13 -5z m291 -1 c-16 -2 -40 -2 -55 0 -16 2 -3 4 27 4
30 0 43 -2 28 -4z m-174 -488 c4 -12 -3 -15 -37 -14 -30 2 -34 3 -14 6 15 2
27 9 27 14 0 15 17 10 24 -6z m1311 -5 c4 -6 -17 -9 -57 -8 l-63 1 50 7 c28 4
53 8 57 8 4 1 10 -2 13 -8z m-1042 -7 c-13 -2 -33 -2 -45 0 -13 2 -3 4 22 4
25 0 35 -2 23 -4z m324 1 c-3 -3 -12 -4 -19 -1 -8 3 -5 6 6 6 11 1 17 -2 13
-5z m231 -1 c-10 -2 -28 -2 -40 0 -13 2 -5 4 17 4 22 1 32 -1 23 -4z m240 0
c-15 -2 -42 -2 -60 0 -18 2 -6 4 27 4 33 0 48 -2 33 -4z m329 1 c-3 -3 -12 -4
-19 -1 -8 3 -5 6 6 6 11 1 17 -2 13 -5z m-2394 -521 c-13 -2 -35 -2 -50 0 -16
2 -5 4 22 4 28 0 40 -2 28 -4z m70 0 c-7 -2 -21 -2 -30 0 -10 3 -4 5 12 5 17
0 24 -2 18 -5z m287 -3 c10 -7 -26 -9 -112 -8 -71 1 -134 5 -140 10 -7 4 43 8
112 8 69 0 132 -5 140 -10z m215 0 c13 -5 -18 -8 -85 -8 -96 1 -99 2 -40 8 94
9 103 9 125 0z m559 3 c8 -4 -48 -9 -131 -11 -80 -2 -143 0 -140 5 7 11 252
17 271 6z m316 -3 c0 -5 -12 -10 -27 -9 -25 0 -26 1 -8 9 27 12 35 12 35 0z
m-1563 -6 c-3 -3 -12 -4 -19 -1 -8 3 -5 6 6 6 11 1 17 -2 13 -5z m841 -1 c-15
-2 -42 -2 -60 0 -18 2 -6 4 27 4 33 0 48 -2 33 -4z m540 0 c-15 -2 -42 -2 -60
0 -18 2 -6 4 27 4 33 0 48 -2 33 -4z m1559 -59 c-3 -3 -12 -4 -19 -1 -8 3 -5
6 6 6 11 1 17 -2 13 -5z m419 -19 c-3 -9 -10 -13 -16 -10 -6 4 -5 11 3 20 15
16 22 11 13 -10z m-3461 -6 c5 -5 -27 -9 -75 -8 -82 0 -84 1 -50 14 36 13 107
10 125 -6z m978 11 c15 0 27 -4 27 -9 0 -4 -220 -9 -491 -10 -356 -1 -489 2
-484 10 5 7 63 10 186 8 98 -2 180 -1 183 1 2 3 127 4 278 3 150 -2 285 -3
301 -3z m2267 -4 c8 -3 53 -7 100 -9 47 -2 -61 -3 -240 -1 -179 1 -327 4 -330
5 -29 13 438 18 470 5z m-3570 -6 c8 -5 11 -10 5 -10 -5 0 -17 5 -25 10 -8 5
-10 10 -5 10 6 0 17 -5 25 -10z m125 0 c16 -7 11 -9 -20 -9 -29 -1 -36 2 -25
9 17 11 19 11 45 0z m1890 -2 c-62 -11 -672 -9 -655 3 9 6 148 9 355 7 187 -1
322 -6 300 -10z m355 3 c-18 -11 -245 -9 -256 2 -4 4 55 7 132 7 83 0 133 -4
124 -9z m215 0 c-11 -4 -42 -5 -70 -1 -49 7 -49 7 20 8 44 0 62 -2 50 -7z
m155 -1 c11 -7 0 -9 -37 -8 -29 0 -53 5 -53 9 0 12 71 11 90 -1z m270 4 c-58
-8 -150 -8 -150 -1 0 4 39 6 88 6 48 -1 76 -3 62 -5z m525 -676 c4 -4 -98 -7
-226 -6 -129 0 -549 -1 -934 -1 -1052 -2 -1786 2 -1550 9 295 8 2702 6 2710
-2z m-3487 -5 c-15 -2 -42 -2 -60 0 -18 2 -6 4 27 4 33 0 48 -2 33 -4z m165 0
c-7 -2 -21 -2 -30 0 -10 3 -4 5 12 5 17 0 24 -2 18 -5z m155 0 c-15 -2 -42 -2
-60 0 -18 2 -6 4 27 4 33 0 48 -2 33 -4z m130 0 c-10 -2 -28 -2 -40 0 -13 2
-5 4 17 4 22 1 32 -1 23 -4z m2908 -43 c36 0 47 -5 60 -25 9 -14 22 -25 28
-24 6 1 47 0 91 -1 61 -3 43 -5 -75 -10 -187 -9 -2299 -5 -2307 4 -4 3 50 6
119 6 100 0 127 3 131 14 5 11 19 13 62 9 45 -5 59 -2 76 13 17 15 34 19 92
17 46 -2 76 -8 87 -18 24 -22 57 -19 63 6 7 27 30 20 37 -12 4 -14 14 -25 27
-27 18 -3 20 1 16 18 -8 31 7 37 85 34 37 -2 114 -4 172 -5 89 -1 108 -5 127
-21 21 -20 63 -18 63 3 0 5 7 9 15 9 8 0 15 -7 15 -16 0 -8 5 -12 11 -9 11 7
33 11 115 20 39 4 54 2 64 -10 17 -20 27 -19 35 4 7 22 45 18 45 -5 0 -24 20
-26 29 -2 7 17 10 18 10 6 1 -13 9 -17 29 -17 43 2 62 9 62 24 0 24 16 25 64
8 43 -16 52 -16 124 -1 52 10 81 12 89 6 7 -6 24 -8 38 -6 19 4 25 1 25 -13 0
-24 11 -24 38 1 25 24 45 25 62 5 7 -8 18 -15 25 -15 7 0 15 7 19 15 3 8 16
15 29 15 14 0 31 7 38 17 13 15 14 15 17 0 3 -13 14 -17 48 -17z m-3043 -57
c-7 -2 -21 -2 -30 0 -10 3 -4 5 12 5 17 0 24 -2 18 -5z m570 0 c-51 -2 -135
-2 -185 0 -51 1 -10 3 92 3 102 0 143 -2 93 -3z m235 0 c-16 -2 -40 -2 -55 0
-16 2 -3 4 27 4 30 0 43 -2 28 -4z m135 -820 c-122 -2 -324 -2 -450 0 -125 1
-25 2 222 2 248 0 350 -1 228 -2z m405 0 c-10 -2 -28 -2 -40 0 -13 2 -5 4 17
4 22 1 32 -1 23 -4z m820 -10 c-10 -2 -28 -2 -40 0 -13 2 -5 4 17 4 22 1 32
-1 23 -4z m215 0 c-34 -2 -93 -2 -130 0 -37 2 -9 3 62 3 72 0 102 -1 68 -3z
m-1693 -13 c-71 -17 86 -27 165 -10 30 6 22 7 -32 3 -52 -4 -73 -2 -73 6 0 9
59 11 223 10 204 -2 433 -13 362 -17 -23 -2 -27 -4 -15 -12 11 -7 2 -10 -33
-10 -30 0 -46 4 -42 10 4 6 -12 10 -42 10 -34 0 -44 -3 -33 -10 10 -6 -128 -9
-385 -8 -220 0 -389 3 -376 7 14 4 -13 7 -60 7 -58 1 -73 -1 -49 -6 l35 -7
-32 -2 c-17 0 -35 4 -38 9 -3 6 -23 11 -43 12 -36 1 -36 1 8 8 57 8 494 9 460
0z m-617 -7 c-24 -2 -62 -2 -85 0 -24 2 -5 4 42 4 47 0 66 -2 43 -4z m1540 0
c-13 -2 -33 -2 -45 0 -13 2 -3 4 22 4 25 0 35 -2 23 -4z m657 -2 l-55 -6 60
-6 c33 -4 83 -3 112 0 29 4 50 3 47 -1 -3 -5 5 -6 18 -3 12 3 82 7 153 10 72
3 147 7 167 9 21 2 36 0 33 -4 -5 -8 33 -16 115 -23 19 -2 -137 -4 -347 -5
-330 -2 -383 0 -383 12 0 10 -14 16 -42 19 -24 2 7 4 67 4 78 0 94 -2 55 -6z
m-106 -23 c-15 -7 -28 -7 -40 1 -16 9 -12 10 21 10 35 0 37 -2 19 -11z m969
-5 c-7 -2 -19 -2 -25 0 -7 3 -2 5 12 5 14 0 19 -2 13 -5z m45 -19 c381 -4 691
-8 690 -10 -2 -2 -87 -4 -188 -4 -194 -1 -253 -6 -244 -21 3 -5 -2 -9 -10 -9
-9 0 -16 5 -16 10 0 7 -57 10 -167 8 l-168 -3 0 -25 c0 -19 4 -24 20 -22 11 2
28 3 38 3 9 0 17 5 17 11 0 7 5 6 15 -2 8 -6 19 -9 24 -5 6 3 19 -3 30 -14 11
-11 32 -23 47 -27 23 -6 25 -4 19 15 -3 11 -3 21 2 21 4 0 18 3 31 6 12 4 22
2 22 -4 0 -6 -8 -13 -17 -15 -14 -4 -13 -5 4 -6 12 0 26 -7 30 -15 8 -14 26
-20 53 -17 10 2 8 5 -6 11 -15 6 -21 17 -21 37 0 15 2 22 4 15 4 -10 8 -10 19
-1 18 14 52 3 37 -12 -8 -8 -5 -18 10 -35 25 -29 41 -31 32 -4 -5 16 -2 20 14
20 12 0 21 -6 21 -14 0 -18 31 -26 102 -26 36 0 58 4 61 13 5 16 95 16 105 0
4 -6 25 -14 47 -16 22 -2 -518 -3 -1200 -1 -1615 4 -1785 5 -1752 11 19 3 27
10 25 21 -2 13 6 18 32 20 54 4 113 24 98 34 -8 4 -8 8 -2 8 6 0 24 -11 40
-25 38 -34 97 -32 102 3 3 16 10 22 28 22 16 0 23 -4 18 -11 -4 -7 6 -10 32
-7 35 3 39 1 36 -19 -3 -19 2 -21 54 -25 41 -2 59 1 68 12 6 8 20 20 31 26 17
9 24 7 42 -14 l21 -25 26 27 c27 26 42 35 32 17 -3 -5 1 -12 10 -15 23 -9 64
-7 64 2 0 5 10 14 23 20 14 7 16 11 7 11 -13 1 -13 3 -1 10 11 7 5 11 -23 16
-33 7 -70 5 -191 -9 -34 -4 -36 -4 -10 3 25 7 20 9 -30 9 -33 0 -53 -2 -45 -6
8 -4 16 -12 17 -18 2 -12 -22 -12 -51 1 -11 5 -31 4 -47 -2 -22 -8 -26 -8 -22
2 7 19 -27 33 -62 24 -28 -6 -29 -7 -5 -9 22 -2 20 -3 -9 -10 -36 -9 -61 -4
-61 11 0 5 -96 9 -217 9 -145 0 -213 -4 -203 -10 12 -8 8 -10 -15 -11 l-30 -1
30 -8 c17 -4 26 -9 20 -10 -5 -1 1 -6 15 -10 22 -7 20 -8 -15 -9 -33 -1 -41
-5 -42 -21 -1 -11 4 -20 13 -20 8 0 14 5 14 10 0 17 37 11 61 -10 l24 -20
-552 3 c-397 1 -549 5 -542 13 10 12 2 24 -18 24 -7 0 -13 -9 -13 -20 0 -19
-7 -20 -97 -20 -161 0 -262 11 -256 26 3 9 -2 14 -13 15 -14 1 -13 3 6 9 23 7
23 8 -10 10 -23 2 -28 4 -15 7 11 3 24 11 28 19 5 8 24 14 48 14 22 0 38 4 35
9 -3 5 51 9 125 9 106 1 130 -2 126 -13 -5 -11 12 -22 33 -22 3 0 15 -5 28
-12 24 -13 66 -6 57 10 -4 5 0 9 8 9 13 0 33 29 25 35 -2 1 -162 5 -357 9
-195 3 -357 9 -360 12 -7 7 3012 -3 4107 -12z m-3835 -21 c-7 -2 -19 -2 -25 0
-7 3 -2 5 12 5 14 0 19 -2 13 -5z m1484 -100 c-3 -3 -11 -2 -17 2 -9 6 -9 10
1 16 14 8 27 -7 16 -18z m2713 -1128 c217 0 544 3 725 7 l330 8 23 -40 c24
-42 28 -60 12 -60 -5 0 -10 7 -10 15 0 9 -7 29 -15 44 l-14 29 -88 -5 c-48 -2
-126 -13 -172 -25 -50 -12 -102 -18 -125 -15 l-41 5 40 -19 40 -19 -45 5 c-25
2 -72 0 -105 -4 -50 -7 -35 -9 95 -11 85 -1 193 -5 240 -9 l85 -7 -147 -8
c-81 -5 -157 -6 -168 -3 -11 3 -23 1 -26 -5 -4 -5 -49 -7 -112 -4 -73 4 -98 2
-77 -4 28 -9 27 -9 -11 -6 -34 3 -41 1 -39 -13 1 -9 7 -15 13 -14 6 2 17 -13
23 -32 7 -19 19 -35 27 -35 7 0 11 3 8 8 -2 4 2 16 10 27 12 16 14 17 14 2 0
-19 15 -23 25 -7 3 6 23 10 43 10 35 -1 36 -2 18 -15 -11 -8 -16 -18 -12 -22
8 -8 13 -9 201 -20 250 -15 -323 -19 -2420 -17 -2284 3 -3224 10 -2965 25 63
3 170 5 237 4 113 -1 123 0 129 18 8 26 0 31 -28 15 -24 -15 -67 -18 -68 -5
-1 42 1 44 32 45 17 0 34 5 37 10 3 6 17 12 31 15 14 2 -7 5 -47 6 -47 1 -73
5 -76 14 -2 8 -28 12 -78 12 -171 0 -332 5 -327 11 10 9 57 12 237 13 96 0
172 3 170 5 -2 3 -33 7 -69 11 -86 8 -89 15 -6 15 50 0 67 3 64 13 -3 6 -20
15 -39 18 -19 4 90 8 241 10 l275 4 -360 6 c-198 3 592 3 1755 0 1163 -3 2293
-6 2510 -6z m-4402 -32 c-10 -2 -26 -2 -35 0 -10 3 -2 5 17 5 19 0 27 -2 18
-5z m-410 -60 c-15 -2 -42 -2 -60 0 -18 2 -6 4 27 4 33 0 48 -2 33 -4z m39
-149 c-3 -3 -12 -4 -19 -1 -8 3 -5 6 6 6 11 1 17 -2 13 -5z m-841 -1566 c-5
-27 -4 -29 4 -11 7 18 14 21 31 15 12 -5 47 -4 78 1 34 6 1489 9 3661 7 l3605
-1 18 -21 c9 -11 17 -28 16 -37 0 -9 -7 -2 -16 17 l-17 32 -80 -1 c-45 0 -76
-2 -71 -4 6 -1 38 -11 73 -20 65 -19 73 -27 45 -44 -19 -11 -15 -13 32 -16 17
-1 33 2 36 8 8 11 39 -43 39 -68 0 -13 -22 -15 -147 -16 -144 -2 -146 -2 -68
-11 44 -5 115 -7 158 -6 47 2 77 -1 77 -7 0 -10 -374 -14 -1577 -15 -387 0
-604 -4 -608 -10 -4 -6 -18 -7 -33 -4 -55 14 -165 16 -187 4 -15 -8 -40 -10
-71 -5 -27 4 -300 9 -607 11 -418 4 -557 2 -551 -7 5 -8 -10 -9 -57 -3 -35 5
-102 8 -149 8 -47 -1 -158 -2 -247 -2 -97 -1 -164 -5 -168 -11 -6 -11 31 -24
61 -21 11 1 24 1 29 0 6 -1 66 -3 135 -5 232 -6 235 -7 233 -33 -4 -37 62 -56
91 -26 9 8 16 11 16 5 0 -6 18 -10 43 -10 26 1 32 3 17 6 -35 6 -90 32 -90 43
0 16 64 22 135 12 38 -5 81 -6 95 -2 40 11 188 -1 201 -16 9 -11 4 -14 -27
-16 -22 -1 -54 -1 -72 0 -38 2 -76 -14 -67 -28 7 -11 16 -11 634 -13 380 -2
485 1 488 10 3 8 14 11 29 7 18 -5 24 -2 24 10 0 13 -19 16 -130 18 -185 4
-174 22 15 25 94 1 151 6 153 12 4 12 51 4 67 -10 5 -5 35 -9 67 -9 36 0 58
-4 58 -11 0 -8 4 -8 13 -2 40 32 104 20 92 -18 -3 -9 0 -21 6 -25 7 -4 116 -8
243 -10 247 -2 255 -2 301 -11 27 -5 28 -7 10 -14 -13 -5 1 -7 40 -7 44 0 54
2 35 8 -22 7 -20 8 15 9 22 1 50 4 63 7 12 4 22 2 22 -4 0 -6 -10 -13 -22 -15
-20 -4 -19 -4 5 -6 15 0 27 4 27 9 0 6 16 10 35 10 19 0 35 -4 35 -10 0 -6 66
-11 163 -13 89 -1 -757 -4 -1880 -5 -1438 -1 -2044 1 -2048 9 -11 17 2 22 63
26 31 2 71 8 88 14 22 7 45 7 76 -1 27 -7 61 -8 90 -3 42 7 45 10 34 25 -11
14 -36 19 -142 24 -71 3 -180 5 -242 4 l-114 -2 5 36 c4 26 1 36 -9 36 -8 0
-14 -7 -14 -15 0 -25 -3 -29 -30 -44 -23 -12 -87 -17 -97 -7 -2 2 6 13 18 25
20 18 20 21 5 21 -9 0 -15 4 -11 9 8 14 -13 24 -38 17 -15 -3 -23 -14 -25 -32
-3 -36 -10 -44 -39 -44 -22 0 -25 4 -21 25 5 23 2 25 -30 25 -27 0 -32 -3 -24
-13 29 -35 -49 -51 -238 -48 -150 2 -181 7 -173 27 3 9 -1 14 -12 14 -11 0
-15 -5 -11 -15 7 -18 -15 -20 -32 -3 -17 17 -15 30 6 27 35 -3 52 1 52 14 0 9
-10 12 -32 10 -26 -4 -30 -2 -18 7 11 8 0 9 -44 5 -33 -3 -63 -8 -67 -11 -4
-2 -9 1 -11 7 -3 9 -9 9 -25 0 -25 -13 -76 -16 -55 -2 7 4 -220 11 -505 16
-595 9 -982 20 -790 23 73 1 117 6 117 12 0 7 -60 10 -180 8 l-181 -3 6 25 c8
33 63 150 71 150 3 0 3 -15 0 -32z m4322 -215 c-32 -2 -84 -2 -115 0 -32 2 -6
3 57 3 63 0 89 -1 58 -3z m105 0 c-7 -2 -21 -2 -30 0 -10 3 -4 5 12 5 17 0 24
-2 18 -5z m215 0 c-10 -2 -28 -2 -40 0 -13 2 -5 4 17 4 22 1 32 -1 23 -4z
m1075 0 c-7 -2 -21 -2 -30 0 -10 3 -4 5 12 5 17 0 24 -2 18 -5z m-4153 -23
c22 -35 12 -40 -62 -36 -82 5 -108 12 -108 31 0 19 16 23 93 21 48 -1 71 -6
77 -16z m2804 -7 c4 -5 24 -8 44 -8 95 -2 146 -7 124 -13 -13 -4 -43 -7 -68
-7 -24 0 -44 -2 -44 -6 0 -3 -22 -5 -50 -3 -27 1 -52 -2 -56 -7 -3 -5 -18 -2
-34 6 -16 8 -39 15 -52 15 -21 1 -21 2 -5 11 9 5 21 8 26 5 5 -4 20 -2 33 3
28 12 72 14 82 4z m251 -3 c4 6 21 8 38 6 18 -3 59 -8 92 -12 55 -7 57 -8 25
-14 -19 -3 -47 -3 -62 1 -14 4 -29 5 -32 2 -3 -3 -27 -6 -52 -6 -36 0 -48 4
-50 16 -2 13 2 15 16 7 13 -7 21 -7 25 0z m-885 -10 c0 -5 -7 -10 -16 -10 -8
0 -12 5 -9 10 3 6 10 10 16 10 5 0 9 -4 9 -10z m1960 -10 c0 -5 -7 -10 -16
-10 -8 0 -12 5 -9 10 3 6 10 10 16 10 5 0 9 -4 9 -10z m37 4 c-3 -3 -12 -4
-19 -1 -8 3 -5 6 6 6 11 1 17 -2 13 -5z m117 -4 c45 -17 31 -33 -21 -25 -57 8
-70 15 -52 26 18 11 42 11 73 -1z m141 -15 c0 -5 -19 -11 -42 -13 -33 -2 -43
0 -43 12 0 10 11 14 43 13 23 -1 42 -6 42 -12z m515 -1 c0 -2 -21 -4 -47 -3
-37 1 -42 3 -23 8 24 7 70 3 70 -5z m-4395 -53 c-3 -6 12 -12 32 -14 21 -2
-124 -3 -322 -3 -343 1 -346 1 -65 3 176 2 298 7 304 13 13 13 59 13 51 1z
m450 -11 c4 -6 -7 -10 -27 -9 -31 1 -32 1 -8 9 14 4 26 8 27 9 1 1 5 -3 8 -9z
m-1522 -7 c-7 -2 -19 -2 -25 0 -7 3 -2 5 12 5 14 0 19 -2 13 -5z m1347 -2
c-14 -4 -61 -4 -105 -1 l-80 7 105 0 c58 1 94 -2 80 -6z m4438 -8 c-26 -2 -71
-2 -100 0 -29 2 -8 3 47 3 55 0 79 -1 53 -3z m-2773 -2373 c699 -5 1680 -12
2180 -15 501 -3 946 -8 989 -11 44 -2 330 -5 638 -5 353 0 558 -4 558 -10 0
-6 6 -6 18 0 15 8 62 15 87 12 6 -1 21 -29 34 -63 14 -35 30 -70 36 -78 11
-15 55 -113 55 -124 0 -3 -87 -7 -192 -7 -133 -1 -177 -4 -143 -9 28 -5 116
-9 198 -9 81 -1 147 -5 147 -9 0 -4 -96 -8 -212 -8 -791 1 -1980 -9 -1984 -16
-6 -10 -84 -11 -84 0 0 9 -4138 17 -4148 7 -3 -3 24 -5 59 -5 45 0 60 -3 49
-10 -12 -8 -92 -7 -175 0 -5 1 -1 5 10 10 14 6 -6 9 -60 10 -44 0 -128 3 -188
7 -96 5 -110 4 -129 -13 -12 -11 -18 -13 -13 -5 7 11 1 13 -29 8 -22 -3 -34
-2 -31 4 4 5 -40 9 -110 9 -75 0 -114 -4 -110 -10 3 -5 -1 -10 -9 -10 -8 0
-17 4 -21 10 -3 5 -167 10 -418 10 -659 2 -1461 15 -1476 24 -9 6 -10 10 -2
16 7 3 -2 7 -18 7 -16 0 -29 -5 -28 -11 1 -7 -24 -10 -73 -9 -112 2 -123 6
-40 13 59 5 38 7 -100 9 -96 2 -178 3 -182 2 -14 -2 -9 47 8 86 9 21 21 47 25
58 5 11 20 47 32 80 l23 60 845 5 c1021 6 2286 3 3984 -10z m-4885 -306 c0 -2
-11 -4 -25 -4 -14 0 -25 4 -25 9 0 4 11 6 25 3 14 -2 25 -6 25 -8z m165 5 c5
-7 -5 -8 -32 -3 -51 9 -54 14 -10 14 20 0 39 -5 42 -11z m2118 -51 c-17 -8
-29 -8 -45 0 -20 9 -18 11 22 11 40 0 42 -2 23 -11z m1035 -5 c-10 -2 -26 -2
-35 0 -10 3 -2 5 17 5 19 0 27 -2 18 -5z m112 -3 c-30 -4 -62 -3 -70 1 -9 5
14 8 55 7 l70 -1 -55 -7z m-356 -66 c31 -12 16 -24 -29 -24 -25 0 -45 4 -45 9
0 17 45 26 74 15z m346 -15 c0 -12 -167 -12 -175 1 -3 5 21 10 57 12 76 4 118
-1 118 -13z m200 1 c0 -13 -65 -21 -109 -14 -39 6 -53 18 -31 26 19 6 140 -4
140 -12z m973 13 c3 -5 90 -7 194 -6 103 1 344 4 534 6 l345 4 -2 -21 c-1 -12
-3 -27 -3 -34 -1 -9 -8 -11 -23 -6 -12 3 -34 8 -48 9 -15 1 -31 4 -36 7 -20
10 -68 7 -76 -4 -5 -9 -31 -13 -80 -11 -40 0 -82 -4 -93 -10 -26 -15 -47 -15
-62 -1 -7 7 -53 13 -110 14 -54 0 -147 3 -208 6 -209 9 -360 11 -381 3 -12 -4
-39 -4 -60 1 -22 5 -158 11 -304 14 -146 3 -278 6 -295 6 l-30 2 29 8 c16 5
155 9 308 8 153 0 280 1 283 3 8 8 114 9 118 2z m1308 -4 c57 -5 108 -14 112
-18 24 -24 -117 -41 -152 -19 -15 9 -28 8 -61 -5 -46 -18 -66 -14 -75 14 -14
43 6 46 176 28z m-4281 -15 c0 -2 -19 -4 -42 -3 -35 1 -38 2 -18 8 23 7 60 4
60 -5z m300 6 c24 -8 24 -8 -5 -9 -16 0 -37 4 -45 9 -12 8 -11 10 5 9 11 -1
31 -5 45 -9z m760 0 c146 -7 -144 -18 -398 -16 -320 4 -311 3 -294 14 11 7
548 9 692 2z m260 0 c0 -5 -7 -10 -15 -10 -8 0 -15 5 -15 10 0 6 7 10 15 10 8
0 15 -4 15 -10z m270 6 c0 -2 -7 -6 -15 -10 -8 -3 -15 -1 -15 4 0 6 7 10 15
10 8 0 15 -2 15 -4z m560 -6 c10 -7 -7 -10 -57 -10 -42 0 -73 4 -73 10 0 13
110 13 130 0z m2850 -6 c113 -2 221 -3 240 -2 97 4 287 -6 298 -16 14 -14
-129 -19 -418 -15 -74 1 -180 1 -235 1 -55 -1 -161 0 -235 1 -74 1 -140 -1
-147 -6 -13 -9 -73 18 -73 33 0 14 46 17 210 12 85 -3 247 -6 360 -8z m-3812
-1 c-10 -2 -26 -2 -35 0 -10 3 -2 5 17 5 19 0 27 -2 18 -5z m4490 -14 l37 -1
-35 -8 c-34 -8 -51 0 -49 25 0 6 3 4 6 -2 2 -7 21 -13 41 -14z m-83 -9 c8 -13
-5 -13 -25 0 -13 8 -13 10 2 10 9 0 20 -4 23 -10z m375 0 c0 -5 -12 -10 -26
-10 -14 0 -23 4 -19 10 3 6 15 10 26 10 10 0 19 -4 19 -10z m150 0 c0 -5 -4
-10 -10 -10 -5 0 -10 5 -10 10 0 6 5 10 10 10 6 0 10 -4 10 -10z m150 1 c22
-6 20 -8 -19 -13 -50 -7 -81 0 -59 13 15 10 43 10 78 0z m-5365 -61 c261 2
237 2 380 0 66 -1 176 -1 245 -1 69 1 141 -3 160 -8 22 -6 -268 -9 -802 -10
-497 0 -840 4 -843 9 -4 6 96 8 247 7 172 -2 262 1 282 9 19 7 43 8 75 2 25
-5 141 -9 256 -8z m2863 6 c39 -4 92 -22 92 -31 0 -10 -1490 -4 -1496 6 -3 5
27 9 68 9 51 0 68 3 58 10 -11 7 -2 10 33 10 27 0 47 -5 47 -11 0 -7 15 -9 48
-4 39 5 321 8 552 5 30 0 105 1 165 3 61 2 99 1 85 -3 -16 -5 7 -8 60 -8 66 1
76 2 45 8 -39 7 -39 7 -7 9 18 0 44 -6 58 -15 20 -14 32 -15 67 -7 38 10 39
11 12 12 -20 1 -26 4 -17 10 13 8 31 7 130 -3z m-2035 -3 c-7 -2 -19 -2 -25 0
-7 3 -2 5 12 5 14 0 19 -2 13 -5z m44 1 c-3 -3 -12 -4 -19 -1 -8 3 -5 6 6 6
11 1 17 -2 13 -5z m2568 -6 c55 1 138 1 185 1 47 -1 100 -1 118 0 17 0 32 -3
32 -9 0 -5 28 -11 63 -13 34 -2 -135 -4 -376 -5 -309 -1 -436 1 -432 9 4 6 13
8 21 5 8 -3 20 2 26 10 11 13 32 14 138 8 69 -4 170 -7 225 -6z m-4512 -5
c-29 -2 -78 -2 -110 0 -32 2 -8 3 52 3 61 0 87 -1 58 -3z m5502 -4 c-5 -6 97
-9 305 -8 171 0 313 -1 316 -4 8 -8 -443 -17 -766 -15 -268 1 -309 4 -340 19
-34 17 -29 18 228 18 174 0 261 -3 257 -10z m-3055 -9 c0 -11 -160 -12 -370
-1 -124 7 -114 8 118 9 162 1 252 -2 252 -8z m4700 -17 c8 -7 -922 -1 -970 7
-25 4 182 5 460 3 278 -3 507 -7 510 -10z m-9915 -1253 c-11 -5 -42 -9 -69 -9
-27 -1 -57 -7 -65 -15 -11 -9 -55 -16 -131 -19 -65 -4 -116 -11 -118 -17 -7
-19 -24 -10 -19 9 3 14 1 18 -9 14 -10 -4 -14 3 -14 21 l0 26 223 -1 c133 0
214 -4 202 -9z m12465 -64 c0 -17 -41 -29 -54 -16 -7 7 -2 10 12 10 13 0 22 6
22 16 0 8 5 12 10 9 6 -3 10 -12 10 -19z m255 -19 c22 -2 -23 -4 -100 -5 -77
-1 -135 2 -129 6 11 6 134 6 229 -1z m325 -117 c6 -11 9 -20 7 -20 -2 0 -12 9
-22 20 -10 11 -13 20 -7 20 6 0 16 -9 22 -20z m40 -15 c7 -9 8 -15 2 -15 -5 0
-12 7 -16 15 -3 8 -4 15 -2 15 2 0 9 -7 16 -15z m-13060 -42 c0 -7 -10 -17
-21 -24 -15 -8 -19 -8 -15 0 4 6 1 11 -8 11 -26 0 -27 -17 0 -35 20 -13 28
-14 40 -4 11 9 18 9 26 1 16 -16 81 -15 96 0 8 8 12 8 12 1 0 -29 -166 -45
-177 -18 -3 10 -10 10 -31 0 -34 -17 -174 -26 -169 -11 2 6 28 11 57 11 50 0
53 2 57 27 2 19 -2 28 -14 31 -10 3 -4 5 14 6 27 1 32 -3 35 -26 2 -14 8 -28
15 -30 8 -3 11 6 9 23 -2 16 2 33 8 40 14 16 66 13 66 -3z m-295 -3 c-3 -5
-10 -10 -16 -10 -5 0 -9 5 -9 10 0 6 7 10 16 10 8 0 12 -4 9 -10z m405 -10 c0
-5 -14 -10 -31 -10 -17 0 -28 4 -24 10 3 6 17 10 31 10 13 0 24 -4 24 -10z
m-523 -76 c-3 -3 -12 -4 -19 -1 -8 3 -5 6 6 6 11 1 17 -2 13 -5z m12503 -15
c0 -10 -7 -11 -37 -3 -34 9 -28 21 7 16 17 -2 30 -8 30 -13z m1025 -9 c-3 -5
-12 -10 -20 -10 -8 0 -17 5 -20 10 -4 6 5 10 20 10 15 0 24 -4 20 -10z m-1037
-25 c26 -2 49 -4 51 -4 2 -1 -2 -7 -8 -15 -22 -27 -121 3 -121 37 0 5 7 4 15
-3 8 -7 36 -14 63 -15z m978 -16 c6 -11 49 -8 89 7 16 5 17 4 9 -5 -19 -21
-81 -25 -106 -7 -12 9 -17 16 -11 16 7 0 15 -5 19 -11z m139 1 c3 -5 -1 -10
-10 -10 -9 0 -13 5 -10 10 3 6 8 10 10 10 2 0 7 -4 10 -10z m-158 -16 c-3 -3
-12 -4 -19 -1 -8 3 -5 6 6 6 11 1 17 -2 13 -5z m-5429 -2126 c-4 -15 -122 -75
-158 -81 -14 -2 -34 -7 -45 -11 -34 -13 -47 -17 -130 -41 -72 -20 -198 -70
-281 -111 -17 -9 -44 -14 -60 -12 l-29 4 30 12 c17 7 37 17 45 22 8 6 26 15
40 21 14 6 37 18 53 26 40 21 275 100 322 108 22 4 67 20 100 35 90 43 120 50
113 28z m1188 -69 c42 -25 58 -53 50 -85 -8 -32 -22 -31 -21 3 0 20 -8 32 -33
46 -49 29 -100 25 -165 -12 -30 -17 -62 -31 -70 -31 -27 0 -66 -22 -72 -40 -3
-9 -18 -23 -33 -30 -15 -7 -35 -16 -45 -22 -10 -5 -22 -6 -28 -3 -12 8 -79
-14 -79 -26 0 -5 74 -9 174 -9 l174 0 58 35 c32 19 66 35 76 35 10 0 18 5 18
10 0 6 7 10 15 10 8 0 15 -3 15 -7 0 -10 -63 -53 -77 -53 -6 0 -16 -7 -23 -15
-11 -13 19 -15 261 -16 151 0 286 -2 302 -4 15 -2 27 1 27 6 0 6 9 7 23 3 12
-4 384 -8 827 -10 443 -1 879 -7 970 -12 91 -6 167 -7 170 -3 10 16 49 19 61
5 19 -23 187 -14 205 10 12 17 19 17 76 7 89 -15 258 -20 428 -11 119 5 153 4
193 -9 39 -13 49 -14 56 -3 6 9 44 15 124 19 l116 6 15 -34 c8 -19 35 -82 61
-142 26 -59 62 -139 81 -178 19 -38 34 -73 34 -78 0 -5 11 -33 25 -63 44 -94
58 -88 -207 -89 -128 0 -222 -4 -208 -8 34 -10 289 -12 376 -3 65 7 73 6 84
-12 12 -19 8 -19 -179 -14 -105 3 -303 2 -439 -3 -449 -16 -1467 -20 -5047
-20 -3517 0 -5715 6 -6395 17 -344 6 -380 9 -364 36 3 4 0 8 -7 8 -6 0 -9 -8
-7 -17 4 -17 -13 -18 -264 -19 -236 0 -268 2 -268 15 0 14 20 16 156 13 98 -2
154 1 150 7 -3 5 -27 9 -54 9 -26 -1 -89 0 -140 1 l-94 1 7 30 c4 16 23 81 44
142 31 97 40 113 58 113 12 0 25 4 30 9 5 5 1 7 -9 3 -30 -11 -28 34 8 142 20
58 36 116 36 129 0 12 4 22 9 22 5 0 9 -4 9 -10 0 -6 10 -6 27 1 15 6 46 9 68
8 23 -2 45 0 50 2 6 3 30 4 55 3 25 -1 700 -5 1500 -7 1137 -4 1438 -3 1378 6
-42 7 -80 16 -85 21 -4 5 1 6 12 2 11 -3 49 -6 85 -7 36 -2 70 -6 75 -10 14
-10 15 -10 249 -16 151 -3 201 -1 207 9 6 9 13 9 34 0 14 -7 60 -12 102 -12
63 0 74 2 69 15 -7 20 4 19 18 0 10 -14 230 -16 2039 -18 l2027 -2 24 29 c26
33 107 56 296 82 61 8 128 24 160 38 30 14 77 27 103 30 27 3 67 14 90 25 56
26 102 26 143 0z m-3411 -59 c-21 -41 -27 -35 -12 12 6 21 16 33 20 29 5 -5 1
-23 -8 -41z m-41 -14 c-3 -8 -12 -17 -20 -20 -11 -4 -12 -2 -1 14 14 23 29 27
21 6z m-2181 -23 c-7 -2 -21 -2 -30 0 -10 3 -4 5 12 5 17 0 24 -2 18 -5z
m-213 -26 c41 -11 94 -36 79 -37 -4 0 -25 7 -48 15 -29 10 -93 14 -223 16
-158 1 -193 -2 -258 -20 -48 -13 -102 -20 -150 -20 l-75 1 115 18 c63 10 129
23 145 28 44 15 361 14 415 -1z m2396 -14 c-10 -10 -19 5 -10 18 6 11 8 11 12
0 2 -7 1 -15 -2 -18z m-46 7 c12 -8 11 -10 -7 -10 -13 0 -23 5 -23 10 0 13 11
13 30 0z m-1492 -15 c6 -3 12 -9 12 -15 0 -7 -6 -8 -19 0 -11 5 -31 10 -45 10
-14 0 -28 5 -31 11 -6 9 44 6 83 -6z m-1553 -25 c-3 -5 -16 -10 -28 -9 -21 0
-21 1 -2 9 28 12 37 12 30 0z m10060 -28 c-3 -3 -11 0 -18 7 -9 10 -8 11 6 5
10 -3 15 -9 12 -12z"/>
<path d="M29080 15780 c-41 -6 -42 -7 -10 -8 19 0 53 3 75 7 33 7 35 9 10 8
-16 0 -50 -3 -75 -7z"/>
<path d="M29558 15773 c23 -2 59 -2 80 0 20 2 1 4 -43 4 -44 0 -61 -2 -37 -4z"/>
<path d="M28580 15723 c-43 -9 -52 -22 -32 -49 17 -23 52 -33 52 -15 0 6 9 9
20 8 11 -1 20 -5 20 -10 0 -4 4 -5 10 -2 5 3 19 1 30 -5 15 -8 25 -8 34 -1 7
6 17 7 21 3 5 -4 5 -1 1 6 -4 7 -11 10 -16 7 -4 -3 -10 2 -14 10 -4 12 3 15
30 15 21 0 33 -4 29 -10 -3 -6 4 -10 17 -10 18 0 20 2 8 10 -12 8 -9 10 11 10
29 0 103 -29 79 -30 -10 -1 -8 -4 5 -9 11 -5 35 -6 53 -3 24 3 32 1 32 -10 0
-21 146 -22 154 -1 3 7 13 13 23 13 10 1 31 6 47 13 l29 13 -44 21 c-32 15
-72 23 -142 27 -62 4 -96 3 -93 -3 11 -18 -12 -21 -40 -6 -37 19 -50 19 -58 0
-7 -18 -142 -22 -148 -4 -4 12 -79 20 -118 12z"/>
<path d="M30550 15706 c0 -12 -10 -16 -36 -16 -21 0 -33 4 -29 10 3 6 -1 10
-10 10 -9 0 -14 -4 -10 -9 3 -6 -34 -10 -92 -9 -63 0 -89 3 -73 8 20 6 14 8
-27 9 l-52 1 26 -26 c18 -18 29 -22 36 -15 6 6 47 11 92 11 53 0 75 -3 65 -10
-8 -5 -12 -12 -8 -15 8 -8 121 -24 130 -18 4 2 5 -3 2 -11 -5 -12 1 -16 21
-16 15 0 24 4 20 10 -3 6 -1 10 5 10 7 0 9 7 6 16 -5 13 -2 15 16 11 13 -4 26
0 33 9 8 12 16 13 37 5 29 -11 71 4 76 27 1 9 -25 12 -97 12 -55 0 -106 3
-115 6 -11 4 -16 1 -16 -10z m-10 -36 c0 -5 -4 -10 -10 -10 -5 0 -10 5 -10 10
0 6 5 10 10 10 6 0 10 -4 10 -10z"/>
<path d="M30408 15703 c7 -3 16 -2 19 1 4 3 -2 6 -13 5 -11 0 -14 -3 -6 -6z"/>
<path d="M31018 15699 c-7 -5 -23 -9 -35 -9 -13 0 -23 -4 -23 -10 0 -5 6 -10
14 -10 8 0 19 -14 25 -30 10 -31 11 -31 73 -28 44 2 62 7 61 16 -2 7 7 12 23
12 14 0 23 -4 19 -10 -3 -5 0 -10 9 -10 8 0 16 6 19 13 3 9 11 9 33 -3 16 -8
49 -15 74 -15 42 0 45 2 42 25 -2 17 0 21 6 12 6 -9 26 -12 58 -10 41 3 49 6
49 23 0 43 -13 46 -229 44 -113 -1 -211 -6 -218 -10z m159 -35 c-3 -3 -12 -4
-19 -1 -8 3 -5 6 6 6 11 1 17 -2 13 -5z"/>
<path d="M31530 15698 c-15 -6 -20 -12 -12 -15 6 -3 12 -18 12 -34 0 -38 19
-37 27 2 4 21 10 28 20 24 11 -4 13 -1 9 11 -3 8 -6 18 -6 20 0 7 -24 3 -50
-8z"/>
<path d="M28394 15684 c3 -9 6 -20 6 -25 0 -5 4 -9 9 -9 5 0 8 8 7 18 -2 9 2
20 8 24 6 5 1 8 -13 8 -17 0 -22 -4 -17 -16z"/>
<path d="M30836 15675 c4 -8 16 -15 28 -14 20 0 21 1 1 10 -14 6 -8 7 23 3 27
-4 42 -2 42 5 0 6 -21 11 -50 11 -40 0 -48 -3 -44 -15z"/>
<path d="M30758 15663 c7 -3 16 -2 19 1 4 3 -2 6 -13 5 -11 0 -14 -3 -6 -6z"/>
<path d="M27867 15646 c-15 -12 -16 -14 -2 -20 22 -8 45 3 38 20 -6 17 -13 17
-36 0z"/>
<path d="M29760 15650 c0 -5 7 -7 15 -4 8 4 15 8 15 10 0 2 -7 4 -15 4 -8 0
-15 -4 -15 -10z"/>
<path d="M30383 15629 c-29 -10 18 -17 63 -9 l39 6 -42 5 c-23 2 -50 2 -60 -2z"/>
<path d="M30755 15620 c-4 -6 11 -10 37 -9 33 0 38 2 23 9 -28 12 -53 12 -60
0z"/>
<path d="M32278 15603 c7 -3 16 -2 19 1 4 3 -2 6 -13 5 -11 0 -14 -3 -6 -6z"/>
<path d="M28208 14483 c6 -2 18 -2 25 0 6 3 1 5 -13 5 -14 0 -19 -2 -12 -5z"/>
<path d="M28658 14478 c17 -8 26 -8 34 0 9 9 4 12 -22 11 -33 0 -34 -1 -12
-11z"/>
<path d="M31388 14473 c7 -3 16 -2 19 1 4 3 -2 6 -13 5 -11 0 -14 -3 -6 -6z"/>
<path d="M32545 14471 c39 -3 126 -3 195 0 112 5 104 6 -70 6 -113 0 -165 -3
-125 -6z"/>
<path d="M27716 14455 c-4 -10 1 -15 14 -15 13 0 18 5 14 15 -4 8 -10 15 -14
15 -4 0 -10 -7 -14 -15z"/>
<path d="M32248 14463 c18 -2 45 -2 60 0 15 2 0 4 -33 4 -33 0 -45 -2 -27 -4z"/>
<path d="M30000 14430 c0 -5 9 -10 20 -10 11 0 20 5 20 10 0 6 -9 10 -20 10
-11 0 -20 -4 -20 -10z"/>
<path d="M27723 14413 c9 -2 23 -2 30 0 6 3 -1 5 -18 5 -16 0 -22 -2 -12 -5z"/>
<path d="M32488 14403 c7 -3 16 -2 19 1 4 3 -2 6 -13 5 -11 0 -14 -3 -6 -6z"/>
<path d="M32670 14379 c0 -5 5 -7 10 -4 6 3 10 8 10 11 0 2 -4 4 -10 4 -5 0
-10 -5 -10 -11z"/>
<path d="M32009 14363 c-1 -5 0 -12 1 -18 1 -5 6 -30 10 -55 7 -39 8 -41 9
-12 0 17 6 32 11 32 16 0 11 47 -6 54 -20 8 -24 8 -25 -1z"/>
<path d="M27899 14349 c15 -6 34 -6 50 0 22 8 19 9 -24 10 -42 0 -46 -2 -26
-10z"/>
<path d="M28340 14356 c0 -8 71 -12 76 -4 3 4 -13 8 -35 8 -23 0 -41 -2 -41
-4z"/>
<path d="M29715 14350 c-3 -5 1 -10 10 -10 9 0 13 5 10 10 -3 6 -8 10 -10 10
-2 0 -7 -4 -10 -10z"/>
<path d="M31086 14340 c6 -6 21 -6 39 -1 30 9 30 9 -9 10 -26 1 -37 -2 -30 -9z"/>
<path d="M31775 14340 c3 -5 12 -10 20 -10 8 0 17 5 20 10 4 6 -5 10 -20 10
-15 0 -24 -4 -20 -10z"/>
<path d="M32166 14335 c4 -8 10 -15 14 -15 4 0 10 7 14 15 4 10 -1 15 -14 15
-13 0 -18 -5 -14 -15z"/>
<path d="M32235 14340 c28 -12 57 -12 50 0 -3 6 -21 10 -38 9 -27 0 -29 -2
-12 -9z"/>
<path d="M32380 14340 c0 -5 14 -10 30 -10 17 0 30 5 30 10 0 6 -13 10 -30 10
-16 0 -30 -4 -30 -10z"/>
<path d="M28240 14270 c0 -5 7 -10 15 -10 8 0 15 5 15 10 0 6 -7 10 -15 10 -8
0 -15 -4 -15 -10z"/>
<path d="M30440 14260 c0 -5 5 -10 11 -10 5 0 7 5 4 10 -3 6 -8 10 -11 10 -2
0 -4 -4 -4 -10z"/>
<path d="M32220 14250 c0 -5 5 -10 10 -10 6 0 10 5 10 10 0 6 -4 10 -10 10 -5
0 -10 -4 -10 -10z"/>
<path d="M28350 12660 c0 -5 7 -10 15 -10 8 0 15 5 15 10 0 6 -7 10 -15 10 -8
0 -15 -4 -15 -10z"/>
<path d="M31670 12660 c0 -5 6 -10 14 -10 8 0 18 5 21 10 3 6 -3 10 -14 10
-12 0 -21 -4 -21 -10z"/>
<path d="M33352 12658 c7 -20 48 -23 48 -4 0 11 -9 16 -26 16 -16 0 -24 -5
-22 -12z"/>
<path d="M26429 12623 c-5 -14 -7 -28 -4 -31 3 -3 5 -1 5 4 0 6 10 10 23 11
78 1 82 2 67 17 -8 8 -30 17 -48 19 -28 5 -34 2 -43 -20z"/>
<path d="M33733 12599 c14 -8 22 -8 30 0 8 8 3 11 -18 11 -26 -1 -28 -2 -12
-11z"/>
<path d="M31158 12493 c6 -2 18 -2 25 0 6 3 1 5 -13 5 -14 0 -19 -2 -12 -5z"/>
<path d="M31500 12480 c0 -5 5 -10 10 -10 6 0 10 5 10 10 0 6 -4 10 -10 10 -5
0 -10 -4 -10 -10z"/>
<path d="M28608 12473 c6 -2 18 -2 25 0 6 3 1 5 -13 5 -14 0 -19 -2 -12 -5z"/>
<path d="M29043 12473 c9 -2 23 -2 30 0 6 3 -1 5 -18 5 -16 0 -22 -2 -12 -5z"/>
<path d="M28230 12459 c0 -5 5 -7 10 -4 6 3 10 8 10 11 0 2 -4 4 -10 4 -5 0
-10 -5 -10 -11z"/>
<path d="M29095 12460 c-28 -7 -27 -8 13 -9 27 -1 41 3 37 9 -7 11 -7 11 -50
0z"/>
<path d="M28938 12453 c7 -3 16 -2 19 1 4 3 -2 6 -13 5 -11 0 -14 -3 -6 -6z"/>
<path d="M29448 12453 c6 -2 18 -2 25 0 6 3 1 5 -13 5 -14 0 -19 -2 -12 -5z"/>
<path d="M29578 12453 c7 -3 16 -2 19 1 4 3 -2 6 -13 5 -11 0 -14 -3 -6 -6z"/>
<path d="M29390 12430 c0 -5 9 -10 21 -10 11 0 17 5 14 10 -3 6 -13 10 -21 10
-8 0 -14 -4 -14 -10z"/>
<path d="M29781 12399 c-70 -9 -85 -17 -75 -42 4 -12 14 -15 34 -11 15 4 36 2
46 -4 12 -7 26 -7 43 0 15 6 42 14 61 17 49 9 52 36 4 39 -21 2 -40 4 -43 6
-3 1 -35 -1 -70 -5z"/>
<path d="M30048 12402 c-17 -2 -28 -9 -28 -18 0 -12 10 -14 42 -12 23 2 43 8
45 14 5 14 -22 21 -59 16z"/>
<path d="M29537 12389 c-9 -6 -15 -14 -12 -20 9 -14 52 -11 58 5 10 26 -14 34
-46 15z"/>
<path d="M30332 12388 c3 -7 16 -14 29 -15 13 -1 35 -4 49 -5 17 -2 25 2 25
12 0 11 -14 16 -54 18 -40 2 -52 0 -49 -10z"/>
<path d="M29600 12380 c0 -5 12 -10 28 -10 21 0 24 2 12 10 -20 13 -40 13 -40
0z"/>
<path d="M31860 12370 c0 -5 9 -10 20 -10 11 0 20 5 20 10 0 6 -9 10 -20 10
-11 0 -20 -4 -20 -10z"/>
<path d="M30703 12323 c9 -2 25 -2 35 0 9 3 1 5 -18 5 -19 0 -27 -2 -17 -5z"/>
<path d="M25650 9820 c0 -5 7 -10 15 -10 8 0 15 5 15 10 0 6 -7 10 -15 10 -8
0 -15 -4 -15 -10z"/>
<path d="M35005 9780 c3 -5 8 -10 11 -10 2 0 4 5 4 10 0 6 -5 10 -11 10 -5 0
-7 -4 -4 -10z"/>
<path d="M26608 9633 c6 -2 18 -2 25 0 6 3 1 5 -13 5 -14 0 -19 -2 -12 -5z"/>
<path d="M32788 9613 c12 -2 30 -2 40 0 9 3 -1 5 -23 4 -22 0 -30 -2 -17 -4z"/>
<path d="M32958 9613 c18 -2 45 -2 60 0 15 2 0 4 -33 4 -33 0 -45 -2 -27 -4z"/>
<path d="M33718 9613 c7 -3 16 -2 19 1 4 3 -2 6 -13 5 -11 0 -14 -3 -6 -6z"/>
<path d="M33908 9613 c28 -2 76 -2 105 0 28 2 5 3 -53 3 -58 0 -81 -1 -52 -3z"/>
<path d="M34188 9613 c18 -2 45 -2 60 0 15 2 0 4 -33 4 -33 0 -45 -2 -27 -4z"/>
<path d="M32649 5388 c23 -6 37 -6 44 1 8 8 -2 11 -33 10 l-45 -1 34 -10z"/>
<path d="M32558 5373 c6 -2 18 -2 25 0 6 3 1 5 -13 5 -14 0 -19 -2 -12 -5z"/>
<path d="M32750 5370 c-18 -12 -2 -12 25 0 13 6 15 9 5 9 -8 0 -22 -4 -30 -9z"/>
<path d="M32465 5348 c-33 -12 -62 -24 -65 -27 -3 -3 -16 -8 -30 -9 -36 -5
-38 -12 -4 -12 16 0 39 7 50 15 12 8 24 12 26 9 6 -5 98 33 98 41 0 8 -9 6
-75 -17z"/>
<path d="M36840 5276 c0 -2 11 -6 25 -8 14 -3 25 -1 25 3 0 5 -11 9 -25 9 -14
0 -25 -2 -25 -4z"/>
<path d="M36970 4999 c0 -5 5 -7 10 -4 6 3 10 8 10 11 0 2 -4 4 -10 4 -5 0
-10 -5 -10 -11z"/>
<path d="M24978 4683 c12 -2 32 -2 45 0 12 2 2 4 -23 4 -25 0 -35 -2 -22 -4z"/>
<path d="M25158 4683 c7 -3 16 -2 19 1 4 3 -2 6 -13 5 -11 0 -14 -3 -6 -6z"/>
<path d="M25228 4683 c23 -2 59 -2 80 0 20 2 1 4 -43 4 -44 0 -61 -2 -37 -4z"/>
<path d="M25498 4683 c67 -2 177 -2 245 0 67 1 12 3 -123 3 -135 0 -190 -2
-122 -3z"/>
<path d="M25938 4683 c12 -2 32 -2 45 0 12 2 2 4 -23 4 -25 0 -35 -2 -22 -4z"/>
<path d="M30443 4673 c9 -2 23 -2 30 0 6 3 -1 5 -18 5 -16 0 -22 -2 -12 -5z"/>
<path d="M31698 4673 c12 -2 30 -2 40 0 9 3 -1 5 -23 4 -22 0 -30 -2 -17 -4z"/>
<path d="M31798 4673 c6 -2 18 -2 25 0 6 3 1 5 -13 5 -14 0 -19 -2 -12 -5z"/>
<path d="M35298 4673 c12 -2 32 -2 45 0 12 2 2 4 -23 4 -25 0 -35 -2 -22 -4z"/>
<path d="M35933 4673 c20 -2 54 -2 75 0 20 2 3 4 -38 4 -41 0 -58 -2 -37 -4z"/>
</g>
</svg>
